<svg xmlns="http://www.w3.org/2000/svg" viewBox="0 0 32 32" color="#FFFFFF" role="img" aria-labelledby="title"><title id="title">协作 / Agent collaboration</title><g color="#FFFFFF"><g stroke-linejoin="miter" stroke-linecap="square"><path d="M8 9 25 12 17 26 8 9" fill="none" stroke="#FFFFFF" stroke-width="1.7"/><polygon points="7,2 11,5 7,8 3,5" fill="#17232E" stroke="#FFFFFF" stroke-width="1.5"/><polygon points="3,5 7,8 7,12 3,9" fill="#FFFFFF" stroke="#FFFFFF" stroke-width="1.5"/><polygon points="7,8 11,5 11,9 7,12" fill="#17232E" stroke="#FFFFFF" stroke-width="1.5"/><polygon points="25,7 29,10 25,13 21,10" fill="#17232E" stroke="#FFFFFF" stroke-width="1.5"/><polygon points="21,10 25,13 25,17 21,14" fill="#FFFFFF" stroke="#FFFFFF" stroke-width="1.5"/><polygon points="25,13 29,10 29,14 25,17" fill="#17232E" stroke="#FFFFFF" stroke-width="1.5"/><polygon points="16,20 20,23 16,26 12,23" fill="#17232E" stroke="#FFFFFF" stroke-width="1.5"/><polygon points="12,23 16,26 16,30 12,27" fill="#FFFFFF" stroke="#FFFFFF" stroke-width="1.5"/><polygon points="16,26 20,23 20,27 16,30" fill="#17232E" stroke="#FFFFFF" stroke-width="1.5"/><circle cx="7" cy="5" r="1.6" fill="#FFFFFF" stroke="#FFFFFF" stroke-width=".8"/><path d="M23 10H27" fill="none" stroke="#FFFFFF" stroke-width="1.5"/><path d="M15 22 17 24" fill="none" stroke="#FFFFFF" stroke-width="1.5"/></g></g></svg>
